<svg width="24" height="25" viewBox="0 0 24 25" fill="none" xmlns="http://www.w3.org/2000/svg">
<path d="M11 20.5249C11 21.0772 11.4477 21.5249 12 21.5249C12.5523 21.5249 13 21.0772 13 20.5249H11ZM12.7071 3.81779C12.3166 3.42727 11.6834 3.42727 11.2929 3.81779L4.92893 10.1818C4.53841 10.5723 4.53841 11.2054 4.92893 11.596C5.31946 11.9865 5.95262 11.9865 6.34315 11.596L12 5.93912L17.6569 11.596C18.0474 11.9865 18.6805 11.9865 19.0711 11.596C19.4616 11.2054 19.4616 10.5723 19.0711 10.1818L12.7071 3.81779ZM13 20.5249V4.5249H11V20.5249H13Z" fill="#FBFDFE"/>
</svg>
