<svg width="25" height="25" viewBox="0 0 25 25" fill="none" xmlns="http://www.w3.org/2000/svg">
<path d="M22.5 12.0516C22.5 17.3348 18.0222 21.6183 12.5 21.6183C11.8507 21.6192 11.2032 21.5591 10.5654 21.4394C10.1063 21.3531 9.87678 21.31 9.71653 21.3345C9.55627 21.359 9.32918 21.4797 8.87499 21.7213C7.59014 22.4046 6.09195 22.6459 4.65111 22.3779C5.19874 21.7043 5.57275 20.8961 5.73778 20.0297C5.83778 19.4997 5.59 18.9849 5.21889 18.608C3.53333 16.8964 2.5 14.59 2.5 12.0516C2.5 6.76843 6.97778 2.48486 12.5 2.48486C18.0222 2.48486 22.5 6.76843 22.5 12.0516Z" stroke="white" stroke-width="1.5" stroke-linejoin="round"/>
<path d="M11 10.5234C11 9.67365 11.6716 8.98486 12.5 8.98486C13.3284 8.98486 14 9.67365 14 10.5234C14 10.8296 13.9127 11.115 13.7623 11.3547C13.3141 12.0693 12.5 12.7506 12.5 13.6003V13.9849" stroke="white" stroke-width="1.5" stroke-linecap="round"/>
<path d="M12.5 15.9849H12.509" stroke="white" stroke-width="1.5" stroke-linecap="round" stroke-linejoin="round"/>
</svg>
