<svg width="24" height="25" viewBox="0 0 24 25" fill="none" xmlns="http://www.w3.org/2000/svg">
<path d="M9 15.5C9 12.6716 9 11.2574 9.87868 10.3787C10.7574 9.5 12.1716 9.5 15 9.5H16C18.8284 9.5 20.2426 9.5 21.1213 10.3787C22 11.2574 22 12.6716 22 15.5V16.5C22 19.3284 22 20.7426 21.1213 21.6213C20.2426 22.5 18.8284 22.5 16 22.5H15C12.1716 22.5 10.7574 22.5 9.87868 21.6213C9 20.7426 9 19.3284 9 16.5V15.5Z" stroke="#B4444A" stroke-width="1.5" stroke-linecap="round" stroke-linejoin="round"/>
<path d="M16.9999 9.5C16.9975 6.54291 16.9528 5.01121 16.092 3.96243C15.9258 3.75989 15.7401 3.57418 15.5376 3.40796C14.4312 2.5 12.7875 2.5 9.5 2.5C6.21252 2.5 4.56878 2.5 3.46243 3.40796C3.25989 3.57417 3.07418 3.75989 2.90796 3.96243C2 5.06878 2 6.71252 2 10C2 13.2875 2 14.9312 2.90796 16.0376C3.07417 16.2401 3.25989 16.4258 3.46243 16.592C4.51121 17.4528 6.04291 17.4975 9 17.4999" stroke="#B4444A" stroke-width="1.5" stroke-linecap="round" stroke-linejoin="round"/>
</svg>
