<svg width="24" height="25" viewBox="0 0 24 25" fill="none" xmlns="http://www.w3.org/2000/svg">
<path d="M14.5 9.86365H14.509" stroke="#B4444A" stroke-width="2" stroke-linecap="round" stroke-linejoin="round"/>
<path d="M14.5 6.36365C16.3941 6.36365 18 7.97684 18 9.93396C18 11.9222 16.368 13.3175 14.8605 14.2663C14.7506 14.3301 14.6264 14.3636 14.5 14.3636C14.3736 14.3636 14.2494 14.3301 14.1395 14.2663C12.6348 13.3082 11 11.9291 11 9.93396C11 7.97684 12.6059 6.36365 14.5 6.36365Z" stroke="#B4444A" stroke-width="1.5"/>
<path d="M2.5 12.3636C2.5 7.88531 2.5 5.64614 3.89124 4.25489C5.28249 2.86365 7.52166 2.86365 12 2.86365C16.4783 2.86365 18.7175 2.86365 20.1088 4.25489C21.5 5.64614 21.5 7.88531 21.5 12.3636C21.5 16.8419 21.5 19.0811 20.1088 20.4724C18.7175 21.8636 16.4783 21.8636 12 21.8636C7.52166 21.8636 5.28249 21.8636 3.89124 20.4724C2.5 19.0811 2.5 16.8419 2.5 12.3636Z" stroke="#B4444A" stroke-width="1.5"/>
<path d="M17 21.3636L3 7.36365" stroke="#B4444A" stroke-width="1.5" stroke-linecap="round" stroke-linejoin="round"/>
<path d="M10 14.3636L4 20.3636" stroke="#B4444A" stroke-width="1.5" stroke-linecap="round" stroke-linejoin="round"/>
</svg>
