<svg width="32" height="33" viewBox="0 0 32 33" fill="none" xmlns="http://www.w3.org/2000/svg">
<path d="M19.9375 17.0112C19.7355 17.8468 18.7809 18.4373 16.8719 19.6184C15.0263 20.76 14.1036 21.3309 13.3599 21.1014C13.0525 21.0065 12.7723 20.8264 12.5464 20.5781C12 19.9778 12 18.8134 12 16.4848C12 14.1561 12 12.9917 12.5464 12.3914C12.7723 12.1432 13.0525 11.963 13.3599 11.8682C14.1036 11.6387 15.0263 12.2095 16.8719 13.3512C18.7809 14.5322 19.7355 15.1228 19.9375 15.9584C20.0208 16.3033 20.0208 16.6662 19.9375 17.0112Z" stroke="white" stroke-width="1.5" stroke-linejoin="round"/>
<path d="M3.3335 16.4848C3.3335 10.5137 3.3335 7.5281 5.18848 5.6731C7.04348 3.81812 10.029 3.81812 16.0002 3.81812C21.9712 3.81812 24.9568 3.81812 26.8119 5.6731C28.6668 7.5281 28.6668 10.5137 28.6668 16.4848C28.6668 22.4558 28.6668 25.4414 26.8119 27.2965C24.9568 29.1514 21.9712 29.1514 16.0002 29.1514C10.029 29.1514 7.04348 29.1514 5.18848 27.2965C3.3335 25.4414 3.3335 22.4558 3.3335 16.4848Z" stroke="white" stroke-width="1.5"/>
</svg>
