<svg width="24" height="25" viewBox="0 0 24 25" fill="none" xmlns="http://www.w3.org/2000/svg">
<path d="M12 22.6212C17.5228 22.6212 22 18.1441 22 12.6212C22 7.09837 17.5228 2.62122 12 2.62122C6.47715 2.62122 2 7.09837 2 12.6212C2 18.1441 6.47715 22.6212 12 22.6212Z" stroke="#B4444A" stroke-width="1.5" stroke-linecap="round" stroke-linejoin="round"/>
<path d="M9 17.621C9.83563 16.9932 10.8744 16.6212 12 16.6212C13.1256 16.6212 14.1644 16.9932 15 17.621" stroke="#B4444A" stroke-width="1.5" stroke-linecap="round" stroke-linejoin="round"/>
<path d="M7 8.63188C7 8.63188 8.40944 8.50462 9.19588 9.12919M9.19588 9.12919L8.93275 9.96388C8.82896 10.2931 9.10031 10.6212 9.4764 10.6212C9.87165 10.6212 10.1327 10.2646 9.92918 9.95597C9.74877 9.68239 9.50309 9.37317 9.19588 9.12919ZM14 8.63188C14 8.63188 15.4094 8.50462 16.1959 9.12919M16.1959 9.12919L15.9328 9.96388C15.829 10.2931 16.1003 10.6212 16.4764 10.6212C16.8717 10.6212 17.1327 10.2646 16.9292 9.95597C16.7488 9.68239 16.5031 9.37317 16.1959 9.12919Z" stroke="#B4444A" stroke-width="1.5" stroke-linecap="round" stroke-linejoin="round"/>
</svg>
