<svg width="24" height="24" viewBox="0 0 24 24" fill="none" xmlns="http://www.w3.org/2000/svg">
<path d="M12.0006 1.5029C12.0006 1.5029 18.1897 1.22615 21.4711 7.42495H11.474C11.474 7.42495 9.58734 7.36436 7.97572 9.64499C7.51277 10.6022 7.01514 11.5883 7.57358 13.5316C6.76912 12.1735 3.30273 6.15929 3.30273 6.15929C3.30273 6.15929 5.74773 1.74796 12.0005 1.5029H12.0006Z" fill="#EF3F36"/>
<path d="M21.1498 17.2392C21.1498 17.2392 18.2939 22.7201 11.2686 22.4491C12.1366 20.9527 16.2685 13.8227 16.2685 13.8227C16.2685 13.8227 17.2667 12.2254 16.0891 9.69398C15.4901 8.81461 14.8795 7.89488 12.912 7.40468C14.4948 7.39036 21.4537 7.40468 21.4537 7.40468C21.4537 7.40468 24.0606 11.7209 21.1498 17.2392Z" fill="#FCD900"/>
<path d="M2.89473 17.2825C2.89473 17.2825 -0.4415 12.0784 3.30846 6.15057C4.17364 7.64698 8.30553 14.7771 8.30553 14.7771C8.30553 14.7771 9.19675 16.4378 11.9832 16.6857C13.0452 16.6079 14.1504 16.5415 15.5625 15.0913C14.7841 16.4638 11.2915 22.4608 11.2915 22.4608C11.2915 22.4608 6.23375 22.553 2.89464 17.2825H2.89473Z" fill="#61BC5B"/>
<path d="M11.2656 22.501L12.6718 16.654C12.6718 16.654 14.217 16.5328 15.5134 15.1172C14.7089 16.5272 11.2656 22.501 11.2656 22.501Z" fill="#5AB055"/>
<path d="M7.29004 12.0668C7.29004 9.48931 9.38787 7.39899 11.9746 7.39899C14.5614 7.39899 16.6592 9.48931 16.6592 12.0668C16.6592 14.6444 14.5614 16.7346 11.9746 16.7346C9.38787 16.7317 7.29004 14.6444 7.29004 12.0668Z" fill="white"/>
<path d="M8.07422 12.0668C8.07422 9.9218 9.81905 8.18033 11.9747 8.18033C14.1275 8.18033 15.8752 9.91893 15.8752 12.0668C15.8752 14.212 14.1304 15.9534 11.9747 15.9534C9.82193 15.9534 8.07422 14.212 8.07422 12.0668Z" fill="url(#paint0_linear_97_8911)"/>
<path d="M21.4507 7.40764L15.6608 9.10007C15.6608 9.10007 14.787 7.82276 12.9092 7.40764C14.5382 7.39896 21.4507 7.40764 21.4507 7.40764Z" fill="#EACA05"/>
<path d="M7.46075 13.3183C6.64759 11.9141 3.30273 6.15927 3.30273 6.15927L7.59091 10.386C7.59091 10.386 7.15105 11.2885 7.31605 12.5801L7.46067 13.3183H7.46075Z" fill="#DF3A32"/>
<defs>
<linearGradient id="paint0_linear_97_8911" x1="11.9745" y1="8.23521" x2="11.9745" y2="15.7195" gradientUnits="userSpaceOnUse">
<stop stop-color="#86BBE5"/>
<stop offset="1" stop-color="#1072BA"/>
</linearGradient>
</defs>
</svg>
