<svg width="24" height="25" viewBox="0 0 24 25" fill="none" xmlns="http://www.w3.org/2000/svg">
<path fill-rule="evenodd" clip-rule="evenodd" d="M6.18182 10.8582C5.20406 10.8582 5 11.0501 5 11.9693V13.636C5 14.5553 5.20406 14.7471 6.18182 14.7471H8.54545V21.4138C8.54545 22.3331 8.74951 22.5249 9.72727 22.5249H12.0909C13.0687 22.5249 13.2727 22.3331 13.2727 21.4138V14.7471H15.9267C16.6683 14.7471 16.8594 14.6116 17.0631 13.9413L17.5696 12.2746C17.9185 11.1263 17.7035 10.8582 16.4332 10.8582H13.2727V8.08046C13.2727 7.46681 13.8018 6.96935 14.4545 6.96935H17.8182C18.7959 6.96935 19 6.7775 19 5.85824V3.63601C19 2.71675 18.7959 2.5249 17.8182 2.5249H14.4545C11.191 2.5249 8.54545 5.01221 8.54545 8.08046V10.8582H6.18182Z" stroke="#B4444A" stroke-width="1.5" stroke-linejoin="round"/>
</svg>
