<svg width="24" height="25" viewBox="0 0 24 25" fill="none" xmlns="http://www.w3.org/2000/svg">
<path d="M2.5 12.5249C2.5 8.04656 2.5 5.80739 3.89124 4.41615C5.28249 3.0249 7.52166 3.0249 12 3.0249C16.4783 3.0249 18.7175 3.0249 20.1088 4.41615C21.5 5.80739 21.5 8.04656 21.5 12.5249C21.5 17.0032 21.5 19.2424 20.1088 20.6337C18.7175 22.0249 16.4783 22.0249 12 22.0249C7.52166 22.0249 5.28249 22.0249 3.89124 20.6337C2.5 19.2424 2.5 17.0032 2.5 12.5249Z" stroke="#B4444A" stroke-width="1.5" stroke-linejoin="round"/>
<path d="M16.5 12.5249C16.5 15.0102 14.4853 17.0249 12 17.0249C9.51472 17.0249 7.5 15.0102 7.5 12.5249C7.5 10.0396 9.51472 8.0249 12 8.0249C14.4853 8.0249 16.5 10.0396 16.5 12.5249Z" stroke="#B4444A" stroke-width="1.5"/>
<path d="M17.5088 7.0249L17.4998 7.0249" stroke="#B4444A" stroke-width="2" stroke-linecap="round" stroke-linejoin="round"/>
</svg>
