<svg width="24" height="25" viewBox="0 0 24 25" fill="none" xmlns="http://www.w3.org/2000/svg">
<path d="M7 10.5249L7 17.5249" stroke="#B4444A" stroke-width="1.5" stroke-linecap="round" stroke-linejoin="round"/>
<path d="M11 13.5249L11 17.5249M11 13.5249C11 11.868 12.3431 10.5249 14 10.5249C15.6569 10.5249 17 11.868 17 13.5249V17.5249M11 13.5249V10.5249" stroke="#B4444A" stroke-width="1.5" stroke-linecap="round" stroke-linejoin="round"/>
<path d="M7.00801 7.5249H6.99902" stroke="#B4444A" stroke-width="2" stroke-linecap="round" stroke-linejoin="round"/>
<path d="M2.5 12.5249C2.5 8.04656 2.5 5.80739 3.89124 4.41614C5.28249 3.0249 7.52166 3.0249 12 3.0249C16.4783 3.0249 18.7175 3.0249 20.1088 4.41614C21.5 5.80739 21.5 8.04656 21.5 12.5249C21.5 17.0032 21.5 19.2424 20.1088 20.6337C18.7175 22.0249 16.4783 22.0249 12 22.0249C7.52166 22.0249 5.28249 22.0249 3.89124 20.6337C2.5 19.2424 2.5 17.0032 2.5 12.5249Z" stroke="#B4444A" stroke-width="1.5" stroke-linejoin="round"/>
</svg>
