<svg width="24" height="25" viewBox="0 0 24 25" fill="none" xmlns="http://www.w3.org/2000/svg">
<path d="M12 21.0249C13.8097 21.0249 15.5451 20.8461 17.1534 20.5183C19.1623 20.1088 20.1668 19.904 21.0834 18.7255C22 17.547 22 16.1942 22 13.4884V11.5614C22 8.85563 22 7.50277 21.0834 6.32428C20.1668 5.14578 19.1623 4.94103 17.1534 4.53153C15.5451 4.20368 13.8097 4.0249 12 4.0249C10.1903 4.0249 8.45489 4.20368 6.84656 4.53153C4.83766 4.94103 3.83321 5.14578 2.9166 6.32428C2 7.50277 2 8.85563 2 11.5614V13.4884C2 16.1942 2 17.547 2.9166 18.7255C3.83321 19.904 4.83766 20.1088 6.84656 20.5183C8.45489 20.8461 10.1903 21.0249 12 21.0249Z" stroke="#B4444A" stroke-width="1.5"/>
<path d="M15.9621 12.8378C15.8137 13.4436 15.0241 13.8787 13.4449 14.749C11.7272 15.6954 10.8684 16.1687 10.1728 15.9864C9.9372 15.9246 9.7202 15.816 9.53799 15.6687C9 15.2338 9 14.3308 9 12.5249C9 10.719 9 9.81602 9.53799 9.38108C9.7202 9.23377 9.9372 9.12519 10.1728 9.06344C10.8684 8.88112 11.7272 9.35435 13.4449 10.3008C15.0241 11.1711 15.8137 11.6062 15.9621 12.212C16.0126 12.4182 16.0126 12.6316 15.9621 12.8378Z" stroke="#B4444A" stroke-width="1.5" stroke-linejoin="round"/>
</svg>
